<?xml version="1.0" encoding="UTF-8" standalone="no"?>
<svg
   xmlns:dc="http://purl.org/dc/elements/1.1/"
   xmlns:cc="http://creativecommons.org/ns#"
   xmlns:rdf="http://www.w3.org/1999/02/22-rdf-syntax-ns#"
   xmlns:svg="http://www.w3.org/2000/svg"
   xmlns="http://www.w3.org/2000/svg"
   xmlns:sodipodi="http://sodipodi.sourceforge.net/DTD/sodipodi-0.dtd"
   xmlns:inkscape="http://www.inkscape.org/namespaces/inkscape"
   width="400"
   height="400"
   viewBox="0 0 105.83333 105.83334"
   version="1.1"
   id="svg8"
   inkscape:version="1.0.2 (e86c8708, 2021-01-15)"
   sodipodi:docname="powerup.svg">
  <defs
     id="defs2" />
  <sodipodi:namedview
     id="base"
     pagecolor="#ffffff"
     bordercolor="#666666"
     borderopacity="1.0"
     inkscape:pageopacity="0.0"
     inkscape:pageshadow="2"
     inkscape:zoom="0.62"
     inkscape:cx="400"
     inkscape:cy="466.45161"
     inkscape:document-units="mm"
     inkscape:current-layer="layer1"
     inkscape:document-rotation="0"
     showgrid="false"
     units="px"
     inkscape:window-width="1248"
     inkscape:window-height="943"
     inkscape:window-x="178"
     inkscape:window-y="25"
     inkscape:window-maximized="0" />
  <metadata
     id="metadata5">
    <rdf:RDF>
      <cc:Work
         rdf:about="">
        <dc:format>image/svg+xml</dc:format>
        <dc:type
           rdf:resource="http://purl.org/dc/dcmitype/StillImage" />
        <dc:title></dc:title>
      </cc:Work>
    </rdf:RDF>
  </metadata>
  <g
     inkscape:label="Ebene 1"
     inkscape:groupmode="layer"
     id="layer1">
    <rect
       style="opacity:1;fill:#126e6e;fill-opacity:0.888298;stroke-width:0.081354"
       id="rect833"
       width="3.4139757"
       height="131.01141"
       x="-16.216398"
       y="-10.241936"
       rx="0.022321343"
       ry="1.8435124" />
    <path
       style="fill:#ffffff;stroke:none;stroke-width:0.264583px;stroke-linecap:butt;stroke-linejoin:miter;stroke-opacity:1"
       d="m 49.331991,22.207935 -5.974464,34.993278 10.241937,-5.120968 -4.267473,20.057126 -3.840726,-5.120968 2.98723,18.776881 11.095429,-16.643147 -7.254702,3.41398 L 62.987904,40.984816 47.625,52.506994 58.720432,23.061428 Z"
       id="path849" />
    <path
       id="path851"
       style="opacity:1;fill:#ffffff;fill-opacity:0.888298;stroke:none;stroke-width:1.97505"
       d="M 199.43555 10 A 190 190 0 0 0 10 200 A 190 190 0 0 0 200 390 A 190 190 0 0 0 390 200 A 190 190 0 0 0 200 10 A 190 190 0 0 0 199.43555 10 z M 199.69531 40 A 160 160 0 0 1 200 40 A 160 160 0 0 1 360 200 A 160 160 0 0 1 200 360 A 160 160 0 0 1 40 200 A 160 160 0 0 1 199.69531 40 z "
       transform="scale(0.26458333)" />
  </g>
</svg>
